<mxfile host="app.diagrams.net" modified="2022-08-11T12:39:04.178Z" agent="5.0 (Macintosh; Intel Mac OS X 10_15_7) AppleWebKit/537.36 (KHTML, like Gecko) Chrome/104.0.0.0 Safari/537.36" etag="w0HEArsXSqH_lj4uukY-" version="17.5.0" type="github">
  <diagram id="YahIw36BISVIve3VZvmF" name="Page-1">
    <mxGraphModel dx="1298" dy="865" grid="1" gridSize="10" guides="1" tooltips="1" connect="1" arrows="1" fold="1" page="1" pageScale="1" pageWidth="827" pageHeight="1169" math="0" shadow="0">
      <root>
        <mxCell id="0" />
        <mxCell id="1" parent="0" />
        <mxCell id="TILOi1UeSWORdn2K5ZrU-19" value="S3" style="text;html=1;strokeColor=none;fillColor=none;align=center;verticalAlign=middle;whiteSpace=wrap;rounded=0;" vertex="1" parent="1">
          <mxGeometry x="395" y="203" width="60" height="30" as="geometry" />
        </mxCell>
        <mxCell id="TILOi1UeSWORdn2K5ZrU-42" value="Pipeline Self Healing" style="swimlane;childLayout=stackLayout;resizeParent=1;resizeParentMax=0;startSize=20;horizontal=0;horizontalStack=1;fillColor=#f5f5f5;fontColor=#333333;strokeColor=#666666;" vertex="1" parent="1">
          <mxGeometry x="130" y="70" width="400" height="480" as="geometry">
            <mxRectangle x="130" y="70" width="30" height="50" as="alternateBounds" />
          </mxGeometry>
        </mxCell>
        <mxCell id="TILOi1UeSWORdn2K5ZrU-43" value="AWS GLUE" style="swimlane;startSize=20;fillColor=#dae8fc;strokeColor=#6c8ebf;" vertex="1" parent="TILOi1UeSWORdn2K5ZrU-42">
          <mxGeometry x="20" width="260" height="480" as="geometry" />
        </mxCell>
        <mxCell id="TILOi1UeSWORdn2K5ZrU-2" value="" style="outlineConnect=0;dashed=0;verticalLabelPosition=bottom;verticalAlign=top;align=center;html=1;shape=mxgraph.aws3.glue;fillColor=#1ba1e2;strokeColor=#006EAF;fontColor=#ffffff;" vertex="1" parent="TILOi1UeSWORdn2K5ZrU-43">
          <mxGeometry x="18.75" y="320" width="82.5" height="99" as="geometry" />
        </mxCell>
        <mxCell id="TILOi1UeSWORdn2K5ZrU-31" value="Monitors the backlog for every hour" style="text;html=1;align=center;verticalAlign=middle;resizable=0;points=[];autosize=1;strokeColor=none;fillColor=none;" vertex="1" parent="TILOi1UeSWORdn2K5ZrU-43">
          <mxGeometry x="-5" y="190" width="200" height="20" as="geometry" />
        </mxCell>
        <mxCell id="TILOi1UeSWORdn2K5ZrU-20" value="Glue Job updated the backlog" style="text;html=1;align=center;verticalAlign=middle;resizable=0;points=[];autosize=1;strokeColor=none;fillColor=none;" vertex="1" parent="TILOi1UeSWORdn2K5ZrU-43">
          <mxGeometry x="90" y="390" width="170" height="20" as="geometry" />
        </mxCell>
        <mxCell id="TILOi1UeSWORdn2K5ZrU-30" value="GLUE Job" style="text;html=1;align=center;verticalAlign=middle;resizable=0;points=[];autosize=1;strokeColor=none;fillColor=none;" vertex="1" parent="TILOi1UeSWORdn2K5ZrU-43">
          <mxGeometry x="25" y="430" width="70" height="20" as="geometry" />
        </mxCell>
        <mxCell id="TILOi1UeSWORdn2K5ZrU-44" value="AWS S3" style="swimlane;startSize=20;fillColor=#f5f5f5;fontColor=#333333;strokeColor=#666666;" vertex="1" parent="TILOi1UeSWORdn2K5ZrU-42">
          <mxGeometry x="280" width="120" height="480" as="geometry" />
        </mxCell>
        <mxCell id="TILOi1UeSWORdn2K5ZrU-34" value="" style="outlineConnect=0;dashed=0;verticalLabelPosition=bottom;verticalAlign=top;align=center;html=1;shape=mxgraph.aws3.s3;fillColor=#E05243;gradientColor=none;" vertex="1" parent="TILOi1UeSWORdn2K5ZrU-44">
          <mxGeometry x="21.75" y="50" width="76.5" height="93" as="geometry" />
        </mxCell>
        <mxCell id="TILOi1UeSWORdn2K5ZrU-35" value="" style="sketch=0;aspect=fixed;pointerEvents=1;shadow=0;dashed=0;html=1;strokeColor=none;labelPosition=center;verticalLabelPosition=bottom;verticalAlign=top;align=center;fillColor=#00188D;shape=mxgraph.azure.code_file" vertex="1" parent="TILOi1UeSWORdn2K5ZrU-44">
          <mxGeometry x="30" y="345.83000000000004" width="44.5" height="47.34" as="geometry" />
        </mxCell>
        <mxCell id="TILOi1UeSWORdn2K5ZrU-10" value="backlogentries.json" style="text;html=1;strokeColor=none;fillColor=none;align=center;verticalAlign=middle;whiteSpace=wrap;rounded=0;" vertex="1" parent="TILOi1UeSWORdn2K5ZrU-44">
          <mxGeometry x="7.25" y="420" width="110" height="30" as="geometry" />
        </mxCell>
        <mxCell id="TILOi1UeSWORdn2K5ZrU-39" style="edgeStyle=orthogonalEdgeStyle;rounded=0;orthogonalLoop=1;jettySize=auto;html=1;entryX=0;entryY=0.5;entryDx=0;entryDy=0;entryPerimeter=0;endArrow=classic;endFill=1;" edge="1" parent="TILOi1UeSWORdn2K5ZrU-42" source="TILOi1UeSWORdn2K5ZrU-2" target="TILOi1UeSWORdn2K5ZrU-35">
          <mxGeometry relative="1" as="geometry" />
        </mxCell>
        <mxCell id="TILOi1UeSWORdn2K5ZrU-46" style="edgeStyle=orthogonalEdgeStyle;rounded=0;orthogonalLoop=1;jettySize=auto;html=1;entryX=0;entryY=0.5;entryDx=0;entryDy=0;entryPerimeter=0;endArrow=classic;endFill=1;" edge="1" parent="TILOi1UeSWORdn2K5ZrU-42" source="TILOi1UeSWORdn2K5ZrU-2" target="TILOi1UeSWORdn2K5ZrU-34">
          <mxGeometry relative="1" as="geometry">
            <Array as="points">
              <mxPoint x="70" y="97" />
            </Array>
          </mxGeometry>
        </mxCell>
        <mxCell id="TILOi1UeSWORdn2K5ZrU-45" value="Dragonfly3" style="swimlane;startSize=20;fillColor=#ffe6cc;strokeColor=#d79b00;" vertex="1" parent="1">
          <mxGeometry x="530" y="70" width="210" height="480" as="geometry" />
        </mxCell>
        <mxCell id="TILOi1UeSWORdn2K5ZrU-3" value="" style="outlineConnect=0;dashed=0;verticalLabelPosition=bottom;verticalAlign=top;align=center;html=1;shape=mxgraph.aws3.data_pipeline;fillColor=#F58534;gradientColor=none;" vertex="1" parent="TILOi1UeSWORdn2K5ZrU-45">
          <mxGeometry x="40" y="334.5" width="70" height="70" as="geometry" />
        </mxCell>
        <mxCell id="TILOi1UeSWORdn2K5ZrU-11" value="V2 Pipeline" style="text;html=1;strokeColor=none;fillColor=none;align=center;verticalAlign=middle;whiteSpace=wrap;rounded=0;" vertex="1" parent="TILOi1UeSWORdn2K5ZrU-45">
          <mxGeometry x="45" y="419" width="60" height="30" as="geometry" />
        </mxCell>
        <mxCell id="TILOi1UeSWORdn2K5ZrU-14" value="Pipeline reads the json" style="text;html=1;align=center;verticalAlign=middle;resizable=0;points=[];autosize=1;strokeColor=none;fillColor=none;" vertex="1" parent="TILOi1UeSWORdn2K5ZrU-45">
          <mxGeometry x="-20" y="314.5" width="140" height="20" as="geometry" />
        </mxCell>
        <mxCell id="TILOi1UeSWORdn2K5ZrU-48" value="Pipeline reprocesses the backlog&lt;br&gt;" style="text;html=1;align=center;verticalAlign=middle;resizable=0;points=[];autosize=1;strokeColor=none;fillColor=none;" vertex="1" parent="TILOi1UeSWORdn2K5ZrU-45">
          <mxGeometry y="190" width="190" height="20" as="geometry" />
        </mxCell>
        <mxCell id="TILOi1UeSWORdn2K5ZrU-37" style="edgeStyle=orthogonalEdgeStyle;rounded=0;orthogonalLoop=1;jettySize=auto;html=1;entryX=0.1;entryY=0.5;entryDx=0;entryDy=0;entryPerimeter=0;endArrow=classic;endFill=1;" edge="1" parent="1" source="TILOi1UeSWORdn2K5ZrU-35" target="TILOi1UeSWORdn2K5ZrU-3">
          <mxGeometry relative="1" as="geometry" />
        </mxCell>
        <mxCell id="TILOi1UeSWORdn2K5ZrU-49" style="edgeStyle=orthogonalEdgeStyle;rounded=0;orthogonalLoop=1;jettySize=auto;html=1;endArrow=classic;endFill=1;" edge="1" parent="1" source="TILOi1UeSWORdn2K5ZrU-3" target="TILOi1UeSWORdn2K5ZrU-34">
          <mxGeometry relative="1" as="geometry">
            <Array as="points">
              <mxPoint x="600" y="167" />
            </Array>
          </mxGeometry>
        </mxCell>
      </root>
    </mxGraphModel>
  </diagram>
</mxfile>
